<svg width="960" height="600" viewBox="0 0 960 600" fill="none" xmlns="http://www.w3.org/2000/svg">
  <rect width="960" height="600" rx="48" fill="#07120F"/>
  <rect width="960" height="600" rx="48" fill="url(#bg)"/>
  <g transform="translate(54 46)">
    <path d="M44 342C118 298 148 318 212 272C270 230 296 144 380 152C462 160 462 238 534 248C604 258 632 194 704 210C766 224 784 282 830 294" stroke="#6DEAD0" stroke-opacity=".2" stroke-width="58" stroke-linecap="round"/>
    <g stroke="#A3FFE9" stroke-opacity=".34" stroke-width="2">
      <path d="M22 382C116 314 154 356 236 294C298 248 308 160 384 170C468 180 476 266 548 270C630 274 648 216 718 232C784 248 794 310 846 320"/>
      <path d="M8 420C108 346 164 390 252 324C326 268 328 190 394 198C480 208 496 300 564 304C644 308 674 252 734 268C796 286 814 344 858 350"/>
      <path d="M52 458C146 388 202 424 278 370C346 322 362 240 420 250C494 262 516 342 586 344C656 346 686 302 748 314C800 324 822 376 854 386"/>
      <path d="M98 492C178 442 226 462 296 420C370 376 396 296 454 306C520 318 542 380 610 386C678 392 708 352 770 362"/>
    </g>
    <g opacity=".2" stroke="#FFFFFF">
      <path d="M0 58H852M0 146H852M0 234H852M0 322H852M0 410H852M0 498H852"/>
      <path d="M76 0V508M192 0V508M308 0V508M424 0V508M540 0V508M656 0V508M772 0V508"/>
    </g>
  </g>
  <g transform="translate(104 104)">
    <rect width="260" height="122" rx="18" fill="#071A18" stroke="#A2FFE8" stroke-opacity=".34"/>
    <text x="24" y="32" fill="#7EF1D7" font-family="Arial, sans-serif" font-size="10" font-weight="700" letter-spacing="2">BMAPVIEWER / LAYERS</text>
    <rect x="24" y="54" width="212" height="1" fill="#FFFFFF" fill-opacity=".14"/>
    <circle cx="34" cy="80" r="5" fill="#66EACE"/><rect x="50" y="76" width="88" height="7" rx="3.5" fill="#FFFFFF" fill-opacity=".55"/>
    <circle cx="34" cy="101" r="5" fill="#F2C56B"/><rect x="50" y="97" width="124" height="7" rx="3.5" fill="#FFFFFF" fill-opacity=".28"/>
  </g>
  <g transform="translate(638 88)">
    <rect width="208" height="72" rx="36" fill="#071A18" stroke="#A2FFE8" stroke-opacity=".34"/>
    <rect x="8" y="8" width="96" height="56" rx="28" fill="#6DEAD0"/>
    <text x="45" y="43" fill="#07120F" font-family="Arial, sans-serif" font-size="16" font-weight="700">2D</text>
    <text x="146" y="43" fill="#FFFFFF" fill-opacity=".5" font-family="Arial, sans-serif" font-size="16" font-weight="700">3D</text>
  </g>
  <g transform="translate(492 226)">
    <path d="M122 0C55 0 0 54 0 122C0 212 122 310 122 310C122 310 244 212 244 122C244 54 189 0 122 0Z" fill="#0A211D" stroke="#83F4DC" stroke-width="5"/>
    <circle cx="122" cy="122" r="50" fill="#6DEAD0" fill-opacity=".18" stroke="#C5FFF2" stroke-width="4"/>
    <circle cx="122" cy="122" r="15" fill="#C5FFF2"/>
    <circle cx="122" cy="122" r="76" stroke="#6DEAD0" stroke-opacity=".28" stroke-width="2" stroke-dasharray="8 10"/>
  </g>
  <path d="M62 536H898" stroke="#A3FFE9" stroke-opacity=".38"/>
  <text x="62" y="566" fill="#E0FFF7" fill-opacity=".6" font-family="monospace" font-size="11" letter-spacing="2">VUE 3 / CESIUM 1.118.2 / OFFLINE GIS</text>
  <defs><linearGradient id="bg" x1="66" y1="34" x2="894" y2="566" gradientUnits="userSpaceOnUse"><stop stop-color="#16433B"/><stop offset=".5" stop-color="#0A2C28"/><stop offset="1" stop-color="#071016"/></linearGradient></defs>
</svg>
